<svg xmlns="http://www.w3.org/2000/svg" viewBox="0 0 512 512" width="512" height="512"><rect width="512" height="512" rx="96" fill="#16191c"/><path d="M30.00,330.00 C32.12,322.80 36.67,304.40 41.75,290.00 C46.84,275.60 51.89,258.84 58.25,250.00 C64.61,241.16 68.62,241.57 77.10,240.91 C85.58,240.25 93.49,245.70 105.35,246.36 C117.21,247.02 128.59,243.89 143.00,244.55 C157.41,245.21 170.14,249.02 185.40,250.00 C200.65,250.98 217.16,249.34 227.75,250.00 C238.34,250.66 238.99,251.68 244.25,253.64 C249.50,255.60 254.33,260.26 256.95,260.91 C259.57,261.56 258.13,260.87 258.80,257.27 C259.48,253.67 259.77,244.84 260.70,240.91 C261.64,236.98 261.88,237.41 264.00,235.45 C266.12,233.49 268.85,230.98 272.50,230.00 C276.14,229.02 279.59,229.02 284.25,230.00 C288.91,230.98 293.31,233.49 298.40,235.45 C303.48,237.41 307.42,238.62 312.50,240.91 C317.58,243.20 321.52,245.89 326.60,248.18 C331.69,250.47 335.66,251.68 340.75,253.64 C345.84,255.60 349.81,256.80 354.90,259.09 C359.98,261.38 363.92,263.74 369.00,266.36 C374.08,268.98 378.02,270.69 383.10,273.64 C388.19,276.59 392.16,279.79 397.25,282.73 C402.34,285.67 405.89,288.36 411.40,290.00 C416.91,291.64 422.34,291.49 427.85,291.82 C433.36,292.15 436.91,290.84 442.00,291.82 C447.08,292.80 451.02,293.34 456.10,297.27 C461.19,301.20 465.59,307.75 470.25,313.64 C474.91,319.53 479.88,327.06 482.00,330.00 L482.00,330 L30.00,330 Z" fill="#f4f5f2"/><path d="M253.39,239.69 L253.39,179.01 L249.66,179.01 L249.66,165.69 L288.20,165.69 L288.20,179.01 L284.47,179.01 L284.47,239.69 Z" fill="#f4f5f2"/><path d="M261.60,241.51 L262.88,239.40 L264.16,237.44 L265.44,236.62 L266.72,235.80 L268.00,234.98 L269.28,234.16 L270.56,233.34 L271.84,232.52 L273.12,232.10 L274.40,232.10 L275.68,232.10 L276.96,232.10 L278.24,232.10 L279.52,232.10 L280.80,232.10 L282.08,232.10 L283.36,232.10 L284.64,232.25 L285.92,232.74 L287.20,233.24 L288.48,233.73 L289.76,234.22 L291.04,234.72 L292.32,235.21 L293.60,235.70 L294.88,236.20 L296.16,236.69 L297.44,237.18 L298.72,237.68 L300.00,238.17 L301.28,238.67 L302.56,239.16 L303.84,239.66 L305.12,240.15 L306.40,240.65 L307.68,241.14 L308.96,241.64 L310.24,242.14 L311.52,242.63 L312.80,243.17 L314.08,243.83 L315.36,244.48 L316.64,245.14 L317.92,245.80 L319.20,246.46 L320.48,247.12 L321.76,247.78 L323.04,248.44 L324.32,249.10 L325.60,249.76 L326.88,250.39 L328.16,250.88 L329.44,251.38 L330.72,251.87 L332.00,252.36 L333.28,252.86 L334.56,253.35 L335.84,253.84 L337.12,254.34 L337.12,254.80 L335.84,254.84 L334.56,254.91 L333.28,254.99 L332.00,255.09 L330.72,255.21 L329.44,255.33 L328.16,255.46 L326.88,255.60 L325.60,255.62 L324.32,255.60 L323.04,255.60 L321.76,255.59 L320.48,255.60 L319.20,255.61 L317.92,255.62 L316.64,255.63 L315.36,255.66 L314.08,255.68 L312.80,255.71 L311.52,255.87 L310.24,256.07 L308.96,256.27 L307.68,256.47 L306.40,256.68 L305.12,256.89 L303.84,257.11 L302.56,257.32 L301.28,257.54 L300.00,257.76 L298.72,257.99 L297.44,258.22 L296.16,258.45 L294.88,258.68 L293.60,258.92 L292.32,259.15 L291.04,259.39 L289.76,259.64 L288.48,259.88 L287.20,260.12 L285.92,260.37 L284.64,260.62 L283.36,261.21 L282.08,261.96 L280.80,262.71 L279.52,263.46 L278.24,264.21 L276.96,264.96 L275.68,265.71 L274.40,266.47 L273.12,267.22 L271.84,268.40 L270.56,269.98 L269.28,271.56 L268.00,273.15 L266.72,274.73 L265.44,276.32 L264.16,277.91 L262.88,280.63 L261.60,283.51 Z" fill="#8f969a"/><path d="M70.68,246.02 L75.00,243.94 L79.31,243.35 L83.63,244.19 L87.95,245.02 L92.26,245.85 L96.58,246.68 L100.90,247.52 L105.21,248.35 L109.53,248.18 L113.85,247.97 L118.16,247.76 L122.48,247.55 L126.80,247.34 L131.11,247.14 L135.43,246.93 L139.75,246.72 L144.06,246.70 L148.38,247.26 L152.70,247.81 L157.01,248.37 L161.33,248.92 L165.65,249.48 L169.96,250.03 L174.28,250.59 L178.59,251.14 L182.91,251.70 L187.23,252.02 L191.54,252.02 L195.86,252.02 L200.18,252.02 L204.49,252.02 L208.81,252.02 L213.13,252.02 L217.44,252.02 L221.76,252.02 L226.08,252.02 L230.39,252.60 L234.71,253.55 L239.03,254.50 L243.34,255.46 L243.34,255.46 L239.03,262.90 L234.71,270.35 L230.39,269.40 L226.08,268.82 L221.76,268.82 L217.44,268.82 L213.13,268.82 L208.81,268.82 L204.49,268.82 L200.18,268.82 L195.86,268.82 L191.54,268.82 L187.23,268.82 L182.91,268.50 L178.59,267.94 L174.28,267.39 L169.96,266.83 L165.65,266.28 L161.33,265.72 L157.01,265.17 L152.70,264.61 L148.38,264.06 L144.06,263.50 L139.75,263.52 L135.43,263.73 L131.11,263.94 L126.80,264.14 L122.48,264.35 L118.16,264.56 L113.85,264.77 L109.53,264.98 L105.21,265.15 L100.90,264.32 L96.58,263.48 L92.26,262.65 L87.95,261.82 L83.63,260.99 L79.31,260.15 L75.00,257.94 L70.68,246.02 Z" fill="#8f969a"/><rect x="30" y="330" width="452" height="22" fill="#c9a46c"/></svg>